<svg width="217" height="31" viewBox="0 0 217 31" fill="none" xmlns="http://www.w3.org/2000/svg">
<path d="M176.58 26.2399C175.153 26.2399 173.86 25.9332 172.7 25.3199C171.553 24.6932 170.647 23.8332 169.98 22.7399C169.327 21.6332 169 20.3866 169 18.9999C169 17.6132 169.327 16.3732 169.98 15.2799C170.647 14.1732 171.553 13.3132 172.7 12.6999C173.86 12.0732 175.16 11.7599 176.6 11.7599C177.813 11.7599 178.907 11.9732 179.88 12.3999C180.867 12.8266 181.693 13.4399 182.36 14.2399L180.28 16.1599C179.333 15.0666 178.16 14.5199 176.76 14.5199C175.893 14.5199 175.12 14.7132 174.44 15.0999C173.76 15.4732 173.227 15.9999 172.84 16.6799C172.467 17.3599 172.28 18.1332 172.28 18.9999C172.28 19.8666 172.467 20.6399 172.84 21.3199C173.227 21.9999 173.76 22.5332 174.44 22.9199C175.12 23.2932 175.893 23.4799 176.76 23.4799C178.16 23.4799 179.333 22.9266 180.28 21.8199L182.36 23.7399C181.693 24.5532 180.867 25.1732 179.88 25.5999C178.893 26.0266 177.793 26.2399 176.58 26.2399Z" fill="#952AE4"/>
<path d="M188.188 26.1599C186.975 26.1599 186.028 25.8399 185.348 25.1999C184.668 24.5466 184.328 23.6266 184.328 22.4399V11.1599H187.448V22.2599C187.448 22.7132 187.561 23.0666 187.788 23.3199C188.028 23.5599 188.361 23.6799 188.788 23.6799C188.948 23.6799 189.108 23.6599 189.268 23.6199C189.441 23.5799 189.575 23.5332 189.668 23.4799L189.808 25.8999C189.288 26.0732 188.748 26.1599 188.188 26.1599Z" fill="#952AE4"/>
<path d="M202.18 15.2399V25.9999H199.22V24.7199C198.806 25.1866 198.313 25.5466 197.74 25.7999C197.166 26.0399 196.546 26.1599 195.88 26.1599C194.466 26.1599 193.346 25.7532 192.52 24.9399C191.693 24.1266 191.28 22.9199 191.28 21.3199V15.2399H194.4V20.8599C194.4 22.5932 195.126 23.4599 196.58 23.4599C197.326 23.4599 197.926 23.2199 198.38 22.7399C198.833 22.2466 199.06 21.5199 199.06 20.5599V15.2399H202.18Z" fill="#952AE4"/>
<path d="M211.43 15.0799C212.43 15.0799 213.337 15.3132 214.15 15.7799C214.977 16.2332 215.623 16.8799 216.09 17.7199C216.557 18.5466 216.79 19.5132 216.79 20.6199C216.79 21.7266 216.557 22.6999 216.09 23.5399C215.623 24.3666 214.977 25.0132 214.15 25.4799C213.337 25.9332 212.43 26.1599 211.43 26.1599C209.95 26.1599 208.823 25.6932 208.05 24.7599V25.9999H205.07V11.1599H208.19V16.3799C208.977 15.5132 210.057 15.0799 211.43 15.0799ZM210.89 23.5999C211.69 23.5999 212.343 23.3332 212.85 22.7999C213.37 22.2532 213.63 21.5266 213.63 20.6199C213.63 19.7132 213.37 18.9932 212.85 18.4599C212.343 17.9132 211.69 17.6399 210.89 17.6399C210.09 17.6399 209.43 17.9132 208.91 18.4599C208.403 18.9932 208.15 19.7132 208.15 20.6199C208.15 21.5266 208.403 22.2532 208.91 22.7999C209.43 23.3332 210.09 23.5999 210.89 23.5999Z" fill="#952AE4"/>
<path d="M44.96 11.7599C46.2533 11.7599 47.38 12.0132 48.34 12.5199C49.3 13.0266 50.0466 13.7732 50.58 14.7599C51.1133 15.7466 51.38 16.9399 51.38 18.3399V25.9999H48.14V22.6399H41.74V25.9999H38.54V18.3399C38.54 16.9399 38.8066 15.7466 39.34 14.7599C39.8733 13.7732 40.62 13.0266 41.58 12.5199C42.54 12.0132 43.6666 11.7599 44.96 11.7599ZM48.14 20.0399V18.0399C48.14 16.8799 47.8533 16.0066 47.28 15.4199C46.7066 14.8199 45.9266 14.5199 44.94 14.5199C43.94 14.5199 43.1533 14.8199 42.58 15.4199C42.02 16.0066 41.74 16.8799 41.74 18.0399V20.0399H48.14Z" fill="white"/>
<path d="M60.8979 15.0799C62.2313 15.0799 63.3046 15.4799 64.1179 16.2799C64.9446 17.0799 65.3579 18.2666 65.3579 19.8399V25.9999H62.2379V20.3199C62.2379 19.4666 62.0513 18.8332 61.6779 18.4199C61.3046 17.9932 60.7646 17.7799 60.0579 17.7799C59.2713 17.7799 58.6446 18.0266 58.1779 18.5199C57.7113 18.9999 57.4779 19.7199 57.4779 20.6799V25.9999H54.3579V15.2399H57.3379V16.4999C57.7513 16.0466 58.2646 15.6999 58.8779 15.4599C59.4913 15.2066 60.1646 15.0799 60.8979 15.0799Z" fill="white"/>
<path d="M79.4033 15.2399V24.1999C79.4033 26.1732 78.8899 27.6399 77.8633 28.5999C76.8366 29.5599 75.3366 30.0399 73.3633 30.0399C72.3233 30.0399 71.3366 29.9132 70.4033 29.6599C69.4699 29.4066 68.6966 29.0399 68.0833 28.5599L69.3233 26.3199C69.7766 26.6932 70.3499 26.9866 71.0433 27.1999C71.7366 27.4266 72.4299 27.5399 73.1233 27.5399C74.2033 27.5399 74.9966 27.2932 75.5033 26.7999C76.0233 26.3199 76.2833 25.5866 76.2833 24.5999V24.1399C75.4699 25.0332 74.3366 25.4799 72.8833 25.4799C71.8966 25.4799 70.9899 25.2666 70.1633 24.8399C69.3499 24.3999 68.7033 23.7866 68.2233 22.9999C67.7433 22.2132 67.5033 21.3066 67.5033 20.2799C67.5033 19.2532 67.7433 18.3466 68.2233 17.5599C68.7033 16.7732 69.3499 16.1666 70.1633 15.7399C70.9899 15.2999 71.8966 15.0799 72.8833 15.0799C74.4433 15.0799 75.6299 15.5932 76.4433 16.6199V15.2399H79.4033ZM73.5033 22.9199C74.3299 22.9199 75.0033 22.6799 75.5233 22.1999C76.0566 21.7066 76.3233 21.0666 76.3233 20.2799C76.3233 19.4932 76.0566 18.8599 75.5233 18.3799C75.0033 17.8866 74.3299 17.6399 73.5033 17.6399C72.6766 17.6399 71.9966 17.8866 71.4633 18.3799C70.9299 18.8599 70.6633 19.4932 70.6633 20.2799C70.6633 21.0666 70.9299 21.7066 71.4633 22.1999C71.9966 22.6799 72.6766 22.9199 73.5033 22.9199Z" fill="white"/>
<path d="M85.2872 16.6599C85.6605 16.1399 86.1605 15.7466 86.7872 15.4799C87.4272 15.2132 88.1605 15.0799 88.9872 15.0799V17.9599C88.6405 17.9332 88.4072 17.9199 88.2872 17.9199C87.3938 17.9199 86.6938 18.1732 86.1872 18.6799C85.6805 19.1732 85.4272 19.9199 85.4272 20.9199V25.9999H82.3072V15.2399H85.2872V16.6599Z" fill="white"/>
<path d="M101.76 15.2399V24.1999C101.76 26.1732 101.26 27.6399 100.26 28.5999C99.2604 29.5599 97.8071 30.0399 95.9004 30.0399C94.8871 30.0399 93.9271 29.9132 93.0204 29.6599C92.1271 29.4066 91.3738 29.0399 90.7604 28.5599L92.0004 26.3199C92.4538 26.6932 93.0071 26.9866 93.6604 27.1999C94.3138 27.4132 94.9738 27.5199 95.6404 27.5199C96.6804 27.5199 97.4404 27.2799 97.9204 26.7999C98.4004 26.3199 98.6404 25.5866 98.6404 24.5999V24.2399C98.2404 24.6399 97.7671 24.9466 97.2204 25.1599C96.6738 25.3732 96.0871 25.4799 95.4604 25.4799C94.0471 25.4799 92.9271 25.0799 92.1004 24.2799C91.2738 23.4666 90.8604 22.2532 90.8604 20.6399V15.2399H93.9804V20.1799C93.9804 21.9266 94.7071 22.7999 96.1604 22.7999C96.9071 22.7999 97.5071 22.5599 97.9604 22.0799C98.4138 21.5866 98.6404 20.8599 98.6404 19.8999V15.2399H101.76Z" fill="white"/>
<path d="M121.975 24.7999C121.308 25.2532 120.468 25.6066 119.455 25.8599C118.455 26.1132 117.388 26.2399 116.255 26.2399C114.842 26.2399 113.642 26.0666 112.655 25.7199C111.668 25.3599 110.922 24.8666 110.415 24.2399C109.908 23.5999 109.655 22.8732 109.655 22.0599C109.655 21.3132 109.862 20.6532 110.275 20.0799C110.688 19.5066 111.255 19.0799 111.975 18.7999C111.428 18.5066 111.002 18.1066 110.695 17.5999C110.402 17.0932 110.255 16.5266 110.255 15.8999C110.255 15.1399 110.488 14.4466 110.955 13.8199C111.422 13.1932 112.128 12.6932 113.075 12.3199C114.022 11.9466 115.182 11.7599 116.555 11.7599C117.462 11.7599 118.348 11.8532 119.215 12.0399C120.082 12.2132 120.835 12.4532 121.475 12.7599L120.575 15.2399C119.348 14.6666 118.048 14.3799 116.675 14.3799C115.635 14.3799 114.848 14.5399 114.315 14.8599C113.795 15.1666 113.535 15.5866 113.535 16.1199C113.535 16.6132 113.708 16.9932 114.055 17.2599C114.415 17.5132 114.955 17.6399 115.675 17.6399H119.495V20.1999H115.475C114.662 20.1999 114.035 20.3399 113.595 20.6199C113.155 20.8999 112.935 21.3066 112.935 21.8399C112.935 22.3999 113.215 22.8399 113.775 23.1599C114.348 23.4666 115.222 23.6199 116.395 23.6199C117.222 23.6199 118.048 23.5132 118.875 23.2999C119.702 23.0732 120.402 22.7599 120.975 22.3599L121.975 24.7999Z" fill="white"/>
<path d="M127.515 26.1599C126.301 26.1599 125.355 25.8399 124.675 25.1999C123.995 24.5466 123.655 23.6266 123.655 22.4399V11.1599H126.775V22.2599C126.775 22.7132 126.888 23.0666 127.115 23.3199C127.355 23.5599 127.688 23.6799 128.115 23.6799C128.275 23.6799 128.435 23.6599 128.595 23.6199C128.768 23.5799 128.901 23.5332 128.995 23.4799L129.135 25.8999C128.615 26.0732 128.075 26.1599 127.515 26.1599Z" fill="white"/>
<path d="M140.839 15.2399L136.299 25.9999H133.079L128.559 15.2399H131.779L134.759 22.5599L137.839 15.2399H140.839Z" fill="white"/>
<path d="M147.239 23.6599C147.799 23.6599 148.292 23.5799 148.719 23.4199C149.159 23.2466 149.566 22.9799 149.939 22.6199L151.599 24.4199C150.586 25.5799 149.106 26.1599 147.159 26.1599C145.946 26.1599 144.872 25.9266 143.939 25.4599C143.006 24.9799 142.286 24.3199 141.779 23.4799C141.272 22.6399 141.019 21.6866 141.019 20.6199C141.019 19.5666 141.266 18.6199 141.759 17.7799C142.266 16.9266 142.952 16.2666 143.819 15.7999C144.699 15.3199 145.686 15.0799 146.779 15.0799C147.806 15.0799 148.739 15.2999 149.579 15.7399C150.419 16.1666 151.086 16.7932 151.579 17.6199C152.086 18.4332 152.339 19.3999 152.339 20.5199L144.379 22.0599C144.606 22.5932 144.959 22.9932 145.439 23.2599C145.932 23.5266 146.532 23.6599 147.239 23.6599ZM146.779 17.4399C145.992 17.4399 145.352 17.6932 144.859 18.1999C144.366 18.7066 144.106 19.4066 144.079 20.2999L149.319 19.2799C149.172 18.7199 148.872 18.2732 148.419 17.9399C147.966 17.6066 147.419 17.4399 146.779 17.4399Z" fill="white"/>
<path d="M158.056 26.1599C157.163 26.1599 156.289 26.0532 155.436 25.8399C154.583 25.6132 153.903 25.3332 153.396 24.9999L154.436 22.7599C154.916 23.0666 155.496 23.3199 156.176 23.5199C156.856 23.7066 157.523 23.7999 158.176 23.7999C159.496 23.7999 160.156 23.4732 160.156 22.8199C160.156 22.5132 159.976 22.2932 159.616 22.1599C159.256 22.0266 158.703 21.9132 157.956 21.8199C157.076 21.6866 156.349 21.5332 155.776 21.3599C155.203 21.1866 154.703 20.8799 154.276 20.4399C153.863 19.9999 153.656 19.3732 153.656 18.5599C153.656 17.8799 153.849 17.2799 154.236 16.7599C154.636 16.2266 155.209 15.8132 155.956 15.5199C156.716 15.2266 157.609 15.0799 158.636 15.0799C159.396 15.0799 160.149 15.1666 160.896 15.3399C161.656 15.4999 162.283 15.7266 162.776 16.0199L161.736 18.2399C160.789 17.7066 159.756 17.4399 158.636 17.4399C157.969 17.4399 157.469 17.5332 157.136 17.7199C156.803 17.9066 156.636 18.1466 156.636 18.4399C156.636 18.7732 156.816 19.0066 157.176 19.1399C157.536 19.2732 158.109 19.3999 158.896 19.5199C159.776 19.6666 160.496 19.8266 161.056 19.9999C161.616 20.1599 162.103 20.4599 162.516 20.8999C162.929 21.3399 163.136 21.9532 163.136 22.7399C163.136 23.4066 162.936 23.9999 162.536 24.5199C162.136 25.0399 161.549 25.4466 160.776 25.7399C160.016 26.0199 159.109 26.1599 158.056 26.1599Z" fill="white"/>
<path d="M17.5 14.5C17.5 16.7091 15.7091 18.5 13.5 18.5C11.2909 18.5 9.5 16.7091 9.5 14.5C9.5 12.2909 11.2909 10.5 13.5 10.5C15.7091 10.5 17.5 12.2909 17.5 14.5Z" fill="#ECECEC"/>
<path fill-rule="evenodd" clip-rule="evenodd" d="M12.4633 9.83362C12.0516 9.32686 11.4151 9.03873 10.7729 9.15668C6.35077 9.96888 3 13.8432 3 18.5001C3 23.7468 7.25329 28.0001 12.5 28.0001C13.3284 28.0001 14 28.6716 14 29.5001C14 30.3285 13.3284 31.0001 12.5 31.0001C5.59644 31.0001 0 25.4036 0 18.5001C0 11.6017 5.58807 6.00843 12.4845 6.00007C12.5122 5.9998 12.5399 6.0003 12.5675 6.00155C12.7718 6.0106 12.9656 6.06054 13.1407 6.14338C13.3214 6.22858 13.4876 6.35125 13.627 6.51015C13.6426 6.52788 13.6578 6.54598 13.6725 6.56444L20.1642 14.5542C20.6866 15.1971 20.5888 16.1418 19.9459 16.6642C19.3029 17.1866 18.3582 17.0889 17.8358 16.4459L12.4633 9.83362Z" fill="#952AE4"/>
<path fill-rule="evenodd" clip-rule="evenodd" d="M8.5 2C8.5 1.17157 9.17157 0.5 10 0.5L14 0.5C14.8284 0.499999 15.5 1.17157 15.5 2C15.5 2.82843 14.8284 3.5 14 3.5L10 3.5C9.17157 3.5 8.5 2.82843 8.5 2Z" fill="#952AE4"/>
</svg>
