<svg width="218" height="31" viewBox="0 0 218 31" fill="none" xmlns="http://www.w3.org/2000/svg">
<path d="M57.816 10.224C56.472 10.224 55.456 10.52 54.768 11.112C54.08 11.688 53.736 12.56 53.736 13.728V14.76H60.648V17.88H53.736V24H49.848V13.752C49.848 11.592 50.52 9.912 51.864 8.712C53.224 7.512 55.12 6.912 57.552 6.912C58.512 6.912 59.416 7.016 60.264 7.224C61.112 7.416 61.848 7.704 62.472 8.088L61.272 11.16C60.312 10.536 59.16 10.224 57.816 10.224ZM76.8711 11.088V24H73.2951V22.512C72.3671 23.632 71.0231 24.192 69.2631 24.192C68.0471 24.192 66.9431 23.92 65.9511 23.376C64.9751 22.832 64.2071 22.056 63.6471 21.048C63.0871 20.04 62.8071 18.872 62.8071 17.544C62.8071 16.216 63.0871 15.048 63.6471 14.04C64.2071 13.032 64.9751 12.256 65.9511 11.712C66.9431 11.168 68.0471 10.896 69.2631 10.896C70.9111 10.896 72.1991 11.416 73.1271 12.456V11.088H76.8711ZM69.9111 21.12C70.8551 21.12 71.6391 20.8 72.2631 20.16C72.8871 19.504 73.1991 18.632 73.1991 17.544C73.1991 16.456 72.8871 15.592 72.2631 14.952C71.6391 14.296 70.8551 13.968 69.9111 13.968C68.9511 13.968 68.1591 14.296 67.5351 14.952C66.9111 15.592 66.5991 16.456 66.5991 17.544C66.5991 18.632 66.9111 19.504 67.5351 20.16C68.1591 20.8 68.9511 21.12 69.9111 21.12ZM88.1854 10.896C89.7854 10.896 91.0734 11.376 92.0494 12.336C93.0414 13.296 93.5374 14.72 93.5374 16.608V24H89.7934V17.184C89.7934 16.16 89.5694 15.4 89.1214 14.904C88.6734 14.392 88.0254 14.136 87.1774 14.136C86.2334 14.136 85.4814 14.432 84.9214 15.024C84.3614 15.6 84.0814 16.464 84.0814 17.616V24H80.3374V11.088H83.9134V12.6C84.4094 12.056 85.0254 11.64 85.7614 11.352C86.4974 11.048 87.3054 10.896 88.1854 10.896ZM104.707 23.376C104.339 23.648 103.883 23.856 103.339 24C102.811 24.128 102.259 24.192 101.683 24.192C100.131 24.192 98.9391 23.8 98.1071 23.016C97.2751 22.232 96.8591 21.08 96.8591 19.56V8.232H100.603V11.376H103.795V14.256H100.603V19.512C100.603 20.056 100.739 20.48 101.011 20.784C101.283 21.072 101.675 21.216 102.187 21.216C102.763 21.216 103.275 21.056 103.723 20.736L104.707 23.376ZM119.527 11.088V24H115.951V22.512C115.023 23.632 113.679 24.192 111.919 24.192C110.703 24.192 109.599 23.92 108.607 23.376C107.631 22.832 106.863 22.056 106.303 21.048C105.743 20.04 105.463 18.872 105.463 17.544C105.463 16.216 105.743 15.048 106.303 14.04C106.863 13.032 107.631 12.256 108.607 11.712C109.599 11.168 110.703 10.896 111.919 10.896C113.567 10.896 114.855 11.416 115.783 12.456V11.088H119.527ZM112.567 21.12C113.511 21.12 114.295 20.8 114.919 20.16C115.543 19.504 115.855 18.632 115.855 17.544C115.855 16.456 115.543 15.592 114.919 14.952C114.295 14.296 113.511 13.968 112.567 13.968C111.607 13.968 110.815 14.296 110.191 14.952C109.567 15.592 109.255 16.456 109.255 17.544C109.255 18.632 109.567 19.504 110.191 20.16C110.815 20.8 111.607 21.12 112.567 21.12ZM127.338 24.192C126.266 24.192 125.218 24.064 124.194 23.808C123.17 23.536 122.354 23.2 121.746 22.8L122.994 20.112C123.57 20.48 124.266 20.784 125.082 21.024C125.898 21.248 126.698 21.36 127.482 21.36C129.066 21.36 129.858 20.968 129.858 20.184C129.858 19.816 129.642 19.552 129.21 19.392C128.778 19.232 128.114 19.096 127.218 18.984C126.162 18.824 125.29 18.64 124.602 18.432C123.914 18.224 123.314 17.856 122.802 17.328C122.306 16.8 122.058 16.048 122.058 15.072C122.058 14.256 122.29 13.536 122.754 12.912C123.234 12.272 123.922 11.776 124.818 11.424C125.73 11.072 126.802 10.896 128.034 10.896C128.946 10.896 129.85 11 130.746 11.208C131.658 11.4 132.41 11.672 133.002 12.024L131.754 14.688C130.618 14.048 129.378 13.728 128.034 13.728C127.234 13.728 126.634 13.84 126.234 14.064C125.834 14.288 125.634 14.576 125.634 14.928C125.634 15.328 125.85 15.608 126.282 15.768C126.714 15.928 127.402 16.08 128.346 16.224C129.402 16.4 130.266 16.592 130.938 16.8C131.61 16.992 132.194 17.352 132.69 17.88C133.186 18.408 133.434 19.144 133.434 20.088C133.434 20.888 133.194 21.6 132.714 22.224C132.234 22.848 131.53 23.336 130.602 23.688C129.69 24.024 128.602 24.192 127.338 24.192ZM148.752 11.088V21.84C148.752 24.208 148.152 25.968 146.952 27.12C145.752 28.272 144.008 28.848 141.72 28.848C140.504 28.848 139.352 28.696 138.264 28.392C137.192 28.088 136.288 27.648 135.552 27.072L137.04 24.384C137.584 24.832 138.248 25.184 139.032 25.44C139.816 25.696 140.608 25.824 141.408 25.824C142.656 25.824 143.568 25.536 144.144 24.96C144.72 24.384 145.008 23.504 145.008 22.32V21.888C144.528 22.368 143.96 22.736 143.304 22.992C142.648 23.248 141.944 23.376 141.192 23.376C139.496 23.376 138.152 22.896 137.16 21.936C136.168 20.96 135.672 19.504 135.672 17.568V11.088H139.416V17.016C139.416 19.112 140.288 20.16 142.032 20.16C142.928 20.16 143.648 19.872 144.192 19.296C144.736 18.704 145.008 17.832 145.008 16.68V11.088H148.752Z" fill="white"/>
<path d="M159.281 7.2H163.169V20.832H171.593V24H159.281V7.2ZM186.512 11.088V24H182.936V22.512C182.008 23.632 180.664 24.192 178.904 24.192C177.688 24.192 176.584 23.92 175.592 23.376C174.616 22.832 173.848 22.056 173.288 21.048C172.728 20.04 172.448 18.872 172.448 17.544C172.448 16.216 172.728 15.048 173.288 14.04C173.848 13.032 174.616 12.256 175.592 11.712C176.584 11.168 177.688 10.896 178.904 10.896C180.552 10.896 181.84 11.416 182.768 12.456V11.088H186.512ZM179.552 21.12C180.496 21.12 181.28 20.8 181.904 20.16C182.528 19.504 182.84 18.632 182.84 17.544C182.84 16.456 182.528 15.592 181.904 14.952C181.28 14.296 180.496 13.968 179.552 13.968C178.592 13.968 177.8 14.296 177.176 14.952C176.552 15.592 176.24 16.456 176.24 17.544C176.24 18.632 176.552 19.504 177.176 20.16C177.8 20.8 178.592 21.12 179.552 21.12ZM197.61 10.896C198.81 10.896 199.898 11.176 200.874 11.736C201.866 12.28 202.642 13.056 203.202 14.064C203.762 15.056 204.042 16.216 204.042 17.544C204.042 18.872 203.762 20.04 203.202 21.048C202.642 22.04 201.866 22.816 200.874 23.376C199.898 23.92 198.81 24.192 197.61 24.192C195.834 24.192 194.482 23.632 193.554 22.512V24H189.978V6.192H193.722V12.456C194.666 11.416 195.962 10.896 197.61 10.896ZM196.962 21.12C197.922 21.12 198.706 20.8 199.314 20.16C199.938 19.504 200.25 18.632 200.25 17.544C200.25 16.456 199.938 15.592 199.314 14.952C198.706 14.296 197.922 13.968 196.962 13.968C196.002 13.968 195.21 14.296 194.586 14.952C193.978 15.592 193.674 16.456 193.674 17.544C193.674 18.632 193.978 19.504 194.586 20.16C195.21 20.8 196.002 21.12 196.962 21.12ZM210.892 24.192C209.82 24.192 208.772 24.064 207.748 23.808C206.724 23.536 205.908 23.2 205.3 22.8L206.548 20.112C207.124 20.48 207.82 20.784 208.636 21.024C209.452 21.248 210.252 21.36 211.036 21.36C212.62 21.36 213.412 20.968 213.412 20.184C213.412 19.816 213.196 19.552 212.764 19.392C212.332 19.232 211.668 19.096 210.772 18.984C209.716 18.824 208.844 18.64 208.156 18.432C207.468 18.224 206.868 17.856 206.356 17.328C205.86 16.8 205.612 16.048 205.612 15.072C205.612 14.256 205.844 13.536 206.308 12.912C206.788 12.272 207.476 11.776 208.372 11.424C209.284 11.072 210.356 10.896 211.588 10.896C212.5 10.896 213.404 11 214.3 11.208C215.212 11.4 215.964 11.672 216.556 12.024L215.308 14.688C214.172 14.048 212.932 13.728 211.588 13.728C210.788 13.728 210.188 13.84 209.788 14.064C209.388 14.288 209.188 14.576 209.188 14.928C209.188 15.328 209.404 15.608 209.836 15.768C210.268 15.928 210.956 16.08 211.9 16.224C212.956 16.4 213.82 16.592 214.492 16.8C215.164 16.992 215.748 17.352 216.244 17.88C216.74 18.408 216.988 19.144 216.988 20.088C216.988 20.888 216.748 21.6 216.268 22.224C215.788 22.848 215.084 23.336 214.156 23.688C213.244 24.024 212.156 24.192 210.892 24.192Z" fill="#FF5A95"/>
<path fill-rule="evenodd" clip-rule="evenodd" d="M18.0765 9.26382C17.4668 9.26382 16.9725 8.76955 16.9725 8.15982C16.9725 5.66382 18.0581 4.41583 20.2294 4.41583C21.7602 4.41583 23.6281 3.86049 24.1296 2.41413C24.2308 2.12231 24.5759 1.99841 24.8333 2.16914C29.1524 5.03428 32 9.94053 32 15.5119C32 21.711 28.4745 27.0868 23.319 29.7435C20.2239 31.3385 17.156 28.5091 17.156 25.0271V18.0238C17.156 16.367 18.4991 15.0238 20.156 15.0238H20.4228C22.0133 15.0238 23.3028 13.7344 23.3028 12.1438C23.3028 10.5532 22.0133 9.26382 20.4228 9.26382H18.0765ZM3.07233 24.9411C5.58275 28.3771 10 25.7025 10 21.4472V8.11182C10 5.16782 10.8257 2.83182 12.4771 1.10382C12.8617 0.708689 12.5371 -0.122183 12.003 0.0151548C5.10059 1.79027 0 8.05541 0 15.5119C0 19.0375 1.14035 22.2968 3.07233 24.9411Z" fill="#C4C4C4"/>
<path fill-rule="evenodd" clip-rule="evenodd" d="M18.0765 9.26382C17.4668 9.26382 16.9725 8.76955 16.9725 8.15982C16.9725 5.66382 18.0581 4.41583 20.2294 4.41583C21.7602 4.41583 23.6281 3.86049 24.1296 2.41413C24.2308 2.12231 24.5759 1.99841 24.8333 2.16914C29.1524 5.03428 32 9.94053 32 15.5119C32 21.711 28.4745 27.0868 23.319 29.7435C20.2239 31.3385 17.156 28.5091 17.156 25.0271V18.0238C17.156 16.367 18.4991 15.0238 20.156 15.0238H20.4228C22.0133 15.0238 23.3028 13.7344 23.3028 12.1438C23.3028 10.5532 22.0133 9.26382 20.4228 9.26382H18.0765ZM3.07233 24.9411C5.58275 28.3771 10 25.7025 10 21.4472V8.11182C10 5.16782 10.8257 2.83182 12.4771 1.10382C12.8617 0.708689 12.5371 -0.122183 12.003 0.0151548C5.10059 1.79027 0 8.05541 0 15.5119C0 19.0375 1.14035 22.2968 3.07233 24.9411Z" fill="url(#paint0_linear_13_41)"/>
<defs>
<linearGradient id="paint0_linear_13_41" x1="-3.99033e-08" y1="11.7473" x2="33.4999" y2="12.4424" gradientUnits="userSpaceOnUse">
<stop stop-color="#FF5555"/>
<stop offset="1" stop-color="#FF5BAA"/>
</linearGradient>
</defs>
</svg>
