<svg width="17" height="17" viewBox="0 0 17 17" fill="none" xmlns="http://www.w3.org/2000/svg">
<path fill-rule="evenodd" clip-rule="evenodd" d="M15.2929 0.292893C15.6834 -0.0976311 16.3166 -0.0976311 16.7071 0.292893C17.0976 0.683417 17.0976 1.31658 16.7071 1.70711L9.91422 8.5L16.7071 15.2929C17.0976 15.6834 17.0976 16.3166 16.7071 16.7071C16.3166 17.0976 15.6834 17.0976 15.2929 16.7071L8.5 9.91421L1.70711 16.7071C1.31658 17.0976 0.683418 17.0976 0.292894 16.7071C-0.0976312 16.3166 -0.0976312 15.6834 0.292894 15.2929L7.08579 8.5L0.292894 1.70711C-0.0976299 1.31658 -0.0976299 0.683417 0.292894 0.292893C0.683419 -0.0976311 1.31658 -0.0976311 1.70711 0.292893L8.5 7.08579L15.2929 0.292893Z" fill="white" fill-opacity="0.38"/>
</svg>
