<svg width="18" height="13" viewBox="0 0 18 13" fill="none" xmlns="http://www.w3.org/2000/svg">
<path fill-rule="evenodd" clip-rule="evenodd" d="M0 1C0 0.447715 0.447715 0 1 0H17C17.5523 0 18 0.447715 18 1C18 1.55228 17.5523 2 17 2H1C0.447715 2 0 1.55228 0 1ZM0 6.5C0 5.94772 0.447715 5.5 1 5.5H17C17.5523 5.5 18 5.94772 18 6.5C18 7.05228 17.5523 7.5 17 7.5H1C0.447715 7.5 0 7.05228 0 6.5ZM1 11C0.447715 11 0 11.4477 0 12C0 12.5523 0.447715 13 1 13H17C17.5523 13 18 12.5523 18 12C18 11.4477 17.5523 11 17 11H1Z" fill="url(#paint0_linear_505_18)"/>
<defs>
<linearGradient id="paint0_linear_505_18" x1="4.06911" y1="2.47173" x2="7.6504" y2="13.1844" gradientUnits="userSpaceOnUse">
<stop stop-color="#5E44FF"/>
<stop offset="1" stop-color="#C76BFF"/>
</linearGradient>
</defs>
</svg>
