<svg width="235" height="58" viewBox="0 0 235 58" fill="none" xmlns="http://www.w3.org/2000/svg">
<path d="M93.625 34.75V38H80.075V20.5H93.3V23.75H84.1V27.55H92.225V30.7H84.1V34.75H93.625ZM101.722 23.8H96.1225V20.5H111.372V23.8H105.772V38H101.722V23.8ZM130.852 20.5V38H126.802V30.825H118.852V38H114.802V20.5H118.852V27.4H126.802V20.5H130.852ZM149.792 34.75V38H136.242V20.5H149.467V23.75H140.267V27.55H148.392V30.7H140.267V34.75H149.792ZM165.414 38L162.039 33.125H161.839H158.314V38H154.264V20.5H161.839C163.389 20.5 164.731 20.7583 165.864 21.275C167.014 21.7917 167.898 22.525 168.514 23.475C169.131 24.425 169.439 25.55 169.439 26.85C169.439 28.15 169.123 29.275 168.489 30.225C167.873 31.1583 166.989 31.875 165.839 32.375L169.764 38H165.414ZM165.339 26.85C165.339 25.8667 165.023 25.1167 164.389 24.6C163.756 24.0667 162.831 23.8 161.614 23.8H158.314V29.9H161.614C162.831 29.9 163.756 29.6333 164.389 29.1C165.023 28.5667 165.339 27.8167 165.339 26.85ZM187.448 34.75V38H173.898V20.5H187.123V23.75H177.923V27.55H186.048V30.7H177.923V34.75H187.448ZM199.696 38.3C197.196 38.3 195.246 37.6083 193.846 36.225C192.462 34.8417 191.771 32.8667 191.771 30.3V20.5H195.821V30.15C195.821 33.2833 197.121 34.85 199.721 34.85C200.987 34.85 201.954 34.475 202.621 33.725C203.287 32.9583 203.621 31.7667 203.621 30.15V20.5H207.621V30.3C207.621 32.8667 206.921 34.8417 205.521 36.225C204.137 37.6083 202.196 38.3 199.696 38.3ZM228.798 38L228.773 27.5L223.623 36.15H221.798L216.673 27.725V38H212.873V20.5H216.223L222.773 31.375L229.223 20.5H232.548L232.598 38H228.798Z" fill="#FEFEFD"/>
<path d="M29.0864 0.314291V0.342862C29.1149 0.48572 29.1149 0.657148 29.1149 0.828577V21.4286C29.0864 21.5429 29.0007 21.5714 28.9149 21.6286C28.3149 21.9143 27.7435 22.1714 27.1435 22.4286C26.3149 22.8 25.4578 23.2 24.6292 23.5714L21.6292 24.9429C20.8007 25.3143 19.9721 25.6857 19.1721 26.0571C18.2007 26.5143 17.2007 26.9429 16.2292 27.4C15.4007 27.7714 14.5721 28.1714 13.7149 28.5429C13.0292 28.8571 12.3435 29.1429 11.6864 29.4571C11.6292 29.4857 11.5721 29.5143 11.5149 29.5143C11.4864 29.5143 11.4864 29.5143 11.4578 29.4857L12.2292 28.2C13.7149 25.7429 15.1721 23.3143 16.6578 20.8571C18.2292 18.2286 19.8292 15.6 21.4007 12.9714C22.8578 10.5429 24.3435 8.11429 25.8007 5.68572C26.8578 3.91429 27.9435 2.14286 29.0007 0.371434C29.0292 0.314291 29.0578 0.28572 29.0578 0.228577H29.0864C29.0578 0.257148 29.0864 0.28572 29.0864 0.314291Z" fill="#8A92B2"/>
<path d="M46.6286 29.4857L46.6571 29.5143L42.4571 32L29.2571 39.8C29.2 39.8286 29.1429 39.8571 29.1143 39.8857C29.0286 39.8857 29.0286 39.8 29.0286 39.7714V39.5143V21.8572C29.0286 21.7714 29.0286 21.6572 29.0571 21.5714C29.0857 21.4572 29.1714 21.4857 29.2571 21.5143C29.6286 21.6857 30.0286 21.8572 30.4 22.0286C31.5143 22.5429 32.6286 23.0572 33.7428 23.5429C34.7143 23.9714 35.6571 24.4286 36.6286 24.8571C37.6 25.2857 38.5714 25.7429 39.5428 26.1714C40.3714 26.5429 41.2286 26.9429 42.0571 27.3143C42.8857 27.6857 43.7429 28.0857 44.5714 28.4571C45.2286 28.7429 45.8857 29.0571 46.5429 29.3429C46.5429 29.4286 46.5714 29.4571 46.6286 29.4857Z" fill="#454A75"/>
<path d="M29.0857 57.6286C29.0857 57.6571 29.0571 57.6857 29.0571 57.7143H29.0285C29.0285 57.6571 28.9714 57.6286 28.9428 57.5714C27.1714 55.0857 25.4 52.5714 23.6285 50.0857C21.8286 47.5429 20 44.9714 18.2 42.4286C16.4571 39.9714 14.6857 37.4857 12.9428 35.0286C12.4857 34.3714 12.0286 33.7428 11.5714 33.0857C11.5428 33.0286 11.5143 33 11.4571 32.9143C11.5428 32.9143 11.6 32.9714 11.6286 33C14.1143 34.4571 16.5714 35.9143 19.0571 37.3714C21.9143 39.0571 24.7428 40.7428 27.6 42.4286L29.0571 43.2857C29.1143 43.3428 29.1143 43.4 29.1143 43.4571V57.2286C29.1143 57.3714 29.1143 57.5143 29.0857 57.6286Z" fill="#8A92B2"/>
<path d="M11.4286 29.5429V29.5143C12.3428 29.1143 13.2286 28.6857 14.1428 28.2857C15.3143 27.7429 16.4857 27.2286 17.6571 26.6857C18.5428 26.2857 19.4571 25.8571 20.3428 25.4571C21.6571 24.8571 22.9428 24.2857 24.2571 23.6857C25.1428 23.2857 26.0286 22.8857 26.9428 22.4571C27.5714 22.1714 28.2286 21.8857 28.8571 21.6C28.9143 21.5714 29 21.5429 29.0286 21.4857C29.0571 21.4857 29.0571 21.5143 29.0286 21.5429V39.6857C29.0286 39.7714 29 39.8571 29.0571 39.9143C29 40 28.9428 39.9143 28.9143 39.8857C28.6571 39.7429 28.4 39.6 28.1428 39.4286C22.6286 36.1714 17.0857 32.8857 11.5714 29.6286C11.5428 29.6 11.4857 29.5714 11.4286 29.5429Z" fill="#62688F"/>
<path d="M46.5714 32.9143H46.6C46.6 32.9714 46.5428 33.0286 46.5143 33.0857C41.2571 40.4857 36 47.9143 30.7428 55.3143C30.2 56.0857 29.6286 56.8571 29.0857 57.6286C29.0571 57.6 29.0571 57.5714 29.0571 57.5429V57.3714V43.5143V43.2571C30.2571 42.5429 31.4286 41.8571 32.6286 41.1428C37.2571 38.4 41.8857 35.6857 46.4857 32.9428C46.5143 32.9714 46.5428 32.9428 46.5714 32.9143Z" fill="#62688F"/>
<path d="M29.0571 21.5429V21.4857V21.3143V0.571436C29.0571 0.485722 29.0286 0.428579 29.0857 0.342865C34.8857 9.97144 40.6857 19.5714 46.4571 29.2C46.5143 29.2857 46.6 29.4 46.6286 29.5143C46.2286 29.3714 45.8571 29.1714 45.4857 29C45.0286 28.8 44.5429 28.5714 44.0857 28.3714C43.8 28.2286 43.4857 28.1143 43.2 27.9714C42.7143 27.7429 42.2286 27.5429 41.7429 27.3143C41.4571 27.2 41.1714 27.0572 40.8857 26.9143L39 26.0572C38.6857 25.9143 38.3714 25.7714 38.0286 25.6286L36.6571 25.0286C36.3714 24.9143 36.0857 24.7714 35.8 24.6286L33.9143 23.7714C33.6 23.6286 33.2857 23.4857 32.9429 23.3429L31.5714 22.7429C31.2571 22.6 30.9714 22.4572 30.6571 22.3143C30.1143 22.0572 29.5714 21.8 29 21.5714C29.0857 21.5429 29.0571 21.5429 29.0571 21.5429Z" fill="#62688F"/>
</svg>
