<svg width="36" height="36" viewBox="0 0 36 36" fill="none" xmlns="http://www.w3.org/2000/svg">
<path d="M18.0534 0.195048V0.212782C18.0712 0.301452 18.0712 0.407856 18.0712 0.51426V13.3005C18.0534 13.3714 18.0002 13.3891 17.947 13.4246C17.5746 13.6019 17.2199 13.7616 16.8475 13.9212C16.3332 14.1517 15.8012 14.4 15.2869 14.6305L13.4249 15.4817C12.9106 15.7123 12.3963 15.9428 11.8998 16.1734C11.2968 16.4571 10.6761 16.7231 10.0731 17.0069C9.55886 17.2374 9.04458 17.4857 8.51256 17.7162C8.08694 17.9113 7.66133 18.0886 7.25344 18.2837C7.21798 18.3015 7.18251 18.3192 7.14704 18.3192C7.12931 18.3192 7.12931 18.3192 7.11157 18.3015L7.59039 17.5034C8.51256 15.9783 9.41699 14.4709 10.3392 12.9458C11.3145 11.3143 12.3076 9.68273 13.283 8.05121C14.1874 6.54382 15.1096 5.03643 16.014 3.52904C16.6702 2.42953 17.3441 1.33002 18.0002 0.230516C18.018 0.195048 18.0357 0.177314 18.0357 0.141846H18.0534C18.0357 0.15958 18.0534 0.177314 18.0534 0.195048Z" fill="#8A92B2"/>
<path d="M28.9417 18.3015L28.9594 18.3193L26.3526 19.8621L18.1595 24.7035C18.124 24.7212 18.0885 24.739 18.0708 24.7567C18.0176 24.7567 18.0176 24.7035 18.0176 24.6858V24.5262V13.5666C18.0176 13.5134 18.0176 13.4424 18.0353 13.3892C18.053 13.3183 18.1062 13.336 18.1595 13.3538C18.39 13.4602 18.6383 13.5666 18.8688 13.673C19.5604 13.9922 20.2521 14.3114 20.9437 14.6129C21.5466 14.8789 22.1319 15.1626 22.7348 15.4286C23.3378 15.6946 23.9407 15.9784 24.5437 16.2444C25.058 16.4749 25.59 16.7232 26.1043 16.9538C26.6186 17.1843 27.1506 17.4326 27.6649 17.6631C28.0728 17.8405 28.4806 18.0355 28.8885 18.2129C28.8885 18.2661 28.9062 18.2838 28.9417 18.3015Z" fill="#454A75"/>
<path d="M18.0532 35.7693C18.0532 35.7871 18.0355 35.8048 18.0355 35.8225H18.0177C18.0177 35.7871 17.9823 35.7693 17.9645 35.7339C16.865 34.191 15.7655 32.6304 14.666 31.0876C13.5488 29.5092 12.4138 27.9132 11.2965 26.3349C10.2148 24.8097 9.11527 23.2669 8.0335 21.7418C7.74975 21.3339 7.46601 20.9437 7.18226 20.5358C7.16453 20.5004 7.1468 20.4826 7.11133 20.4294C7.16453 20.4294 7.2 20.4649 7.21773 20.4826C8.76059 21.3871 10.2857 22.2915 11.8286 23.1959C13.602 24.2423 15.3576 25.2886 17.131 26.3349L18.0355 26.8669C18.0709 26.9023 18.0709 26.9378 18.0709 26.9733V35.5211C18.0709 35.6097 18.0709 35.6984 18.0532 35.7693Z" fill="#8A92B2"/>
<path d="M7.09351 18.3369V18.3192C7.66099 18.0709 8.21075 17.8049 8.77824 17.5566C9.50533 17.2197 10.2324 16.9005 10.9595 16.5635C11.5093 16.3152 12.0768 16.0492 12.6265 15.801C13.4423 15.4285 14.2403 15.0739 15.0561 14.7015C15.6058 14.4532 16.1556 14.2049 16.7231 13.9389C17.1132 13.7616 17.5211 13.5842 17.9112 13.4069C17.9467 13.3891 17.9999 13.3714 18.0176 13.3359C18.0354 13.3359 18.0354 13.3537 18.0176 13.3714V24.6325C18.0176 24.6857 17.9999 24.7389 18.0354 24.7744C17.9999 24.8276 17.9644 24.7744 17.9467 24.7566C17.7871 24.668 17.6275 24.5793 17.4679 24.4729C14.0452 22.4512 10.6048 20.4118 7.18218 18.3901C7.16444 18.3724 7.12897 18.3547 7.09351 18.3369Z" fill="#62688F"/>
<path d="M28.9063 20.4294H28.9241C28.9241 20.4649 28.8886 20.5004 28.8709 20.5358C25.6078 25.129 22.3448 29.7398 19.0817 34.3329C18.7448 34.8117 18.3901 35.2905 18.0531 35.7693C18.0354 35.7516 18.0354 35.7339 18.0354 35.7161V35.6097V27.0088V26.8491C18.7802 26.4058 19.5073 25.9802 20.2521 25.5368C23.1251 23.8344 25.998 22.1496 28.8531 20.4472C28.8709 20.4649 28.8886 20.4472 28.9063 20.4294Z" fill="#62688F"/>
<path d="M18.0355 13.3715V13.336V13.2296V0.354763C18.0355 0.301561 18.0177 0.266093 18.0532 0.212891C21.6532 6.18925 25.2532 12.1479 28.8355 18.1242C28.8709 18.1774 28.9241 18.2484 28.9419 18.3193C28.6936 18.2306 28.4631 18.1065 28.2325 18.0001C27.9488 17.8759 27.6473 17.7341 27.3635 17.6099C27.1862 17.5213 26.9911 17.4503 26.8138 17.3617C26.5123 17.2198 26.2108 17.0957 25.9094 16.9538C25.732 16.8828 25.5547 16.7942 25.3773 16.7055L24.2069 16.1735C24.0118 16.0848 23.8168 15.9961 23.6039 15.9075L22.7527 15.5351C22.5754 15.4641 22.398 15.3755 22.2207 15.2868L21.0502 14.7548C20.8552 14.6661 20.6601 14.5774 20.4473 14.4888L19.5961 14.1163C19.401 14.0277 19.2236 13.939 19.0286 13.8503C18.6916 13.6907 18.3547 13.5311 18 13.3892C18.0532 13.3715 18.0355 13.3715 18.0355 13.3715Z" fill="#62688F"/>
</svg>
